<svg xmlns="http://www.w3.org/2000/svg" width="16" height="16" viewBox="0 0 16 16"><path d="M8.735 1H4.548C2.67 1 .905 2.422.905 4.07c0 1.682 1.28 3.04 3.19 3.04.132 0 .26-.002.387-.01-.124.236-.213.504-.213.78 0 .47.25.848.57 1.158-.24 0-.474.007-.727.007C1.788 9.045 0 10.525 0 12.06c0 1.513 1.96 2.46 4.285 2.46 2.65 0 4.114-1.505 4.114-3.017 0-1.213-.36-1.94-1.465-2.72-.378-.27-1.102-.92-1.102-1.303 0-.45.128-.67.804-1.198.692-.54 1.182-1.302 1.182-2.186 0-1.053-.47-2.08-1.35-2.418h1.326L8.733 1zM7.273 11.242c.033.14.05.284.05.432 0 1.222-.786 2.177-3.045 2.177-1.607 0-2.767-1.016-2.767-2.238 0-1.198 1.44-2.194 3.047-2.177.375.004.724.064 1.042.167.87.607 1.497.95 1.674 1.64zM4.7 6.684C3.62 6.652 2.596 5.477 2.41 4.06s.537-2.5 1.615-2.468c1.078.032 2.104 1.17 2.29 2.585S5.778 6.715 4.7 6.683zM13 4V1h-1v3H9v1h3v3h1V5h3V4z"/></svg>