<svg xmlns="http://www.w3.org/2000/svg" width="16" height="16" viewBox="0 0 16 16"><path d="M4.58 0L3.5 2.144 2.42 0H1.04l1.95 3.396L3 3.39V6h1V3.39l.01.006L5.96 0zM7.5 2c.27 0 .5.23.5.5v2c0 .27-.23.5-.5.5S7 4.77 7 4.5v-2c0-.27.23-.5.5-.5zm0-1C6.675 1 6 1.675 6 2.5v2C6 5.325 6.675 6 7.5 6S9 5.325 9 4.5v-2C9 1.675 8.325 1 7.5 1zM12 1v3.937c-.436.364-1 .583-1-.713V1h-1v3.427h.002c.015.827.19 2.315 1.998 1.105V6h1V1h-1zM13.5 11c-.276 0-.5.224-.5.5v.5h1v-.5c0-.276-.224-.5-.5-.5zM9 11.5v2.625c.34.34 1 .375 1-.125v-2.344S9.5 11 9 11.5z"/><path d="M15.918 9.087c-.044-.576-.25-1.046-.622-1.41s-.845-.562-1.423-.595C12.783 7.028 10.288 7 8.096 7s-4.864.027-5.954.082c-.578.033-1.052.23-1.423.595s-.58.834-.623 1.41C.032 10.26 0 10.687 0 11.273s.032 1.467.097 2.64c.044.577.25 1.047.622 1.41s.844.563 1.422.596c1.09.053 3.763.08 5.954.08s4.686-.027 5.777-.08c.578-.034 1.052-.232 1.423-.596s.578-.834.622-1.41c.055-.978.082-1.858.082-2.64s-.027-1.21-.082-2.187zM3 15H2v-5H1V9h3v1H3v5zm4 0H6v-.468c-1.9 1.067-1.983.034-1.998-.792H4V11h1v2.756c0 .604.564.546 1 .182V11h1v4zm4-1.014c0 1.045-1.07 1.35-2 .537V15H8V9h1v1.625c1-1 2-.625 2 .375v2.986zM15 12v.5h-2v1c0 .276.224.5.5.5s.5-.224.5-.5V13h1v.5c0 .827-.673 1.5-1.5 1.5s-1.5-.673-1.5-1.5v-2c0-.827.673-1.5 1.5-1.5s1.5.673 1.5 1.5v.5z"/></svg>