<svg xmlns="http://www.w3.org/2000/svg" width="16" height="16" viewBox="0 0 16 16"><path d="M13.344 0H2.656C1.196 0 0 1.195 0 2.656v10.688C0 14.804 1.195 16 2.656 16h10.688C14.804 16 16 14.805 16 13.344V2.656C16 1.196 14.805 0 13.344 0zM5.122 7h5.756c.11.313.17.65.17 1 0 1.68-1.368 3.047-3.048 3.047S4.953 9.68 4.953 8c0-.35.06-.687.17-1zM14 7v6c0 .55-.45 1-1 1H3c-.55 0-1-.45-1-1V7h1.564c-.073.322-.11.657-.11 1 0 2.507 2.04 4.547 4.546 4.547s4.547-2.04 4.547-4.547c0-.343-.04-.678-.11-1H14zm0-3.5c0 .275-.225.5-.5.5h-1c-.275 0-.5-.225-.5-.5v-1c0-.275.225-.5.5-.5h1c.275 0 .5.225.5.5v1z"/></svg>