<svg xmlns="http://www.w3.org/2000/svg" xmlns:xlink="http://www.w3.org/1999/xlink" version="1.1" x="0px" y="0px" viewBox="0 0 40 50" enable-background="new 0 0 40 40" xml:space="preserve"><path d="M39.011,23.216c-0.006-0.275-0.231-0.546-0.5-0.602l-1.364-0.284c-3.545-4.104-5.874-7.359-7.258-9.486  c-1.097-1.688-1.765-2.908-2.125-3.613V8.763c0-0.275-0.225-0.5-0.5-0.5h-1c-0.275,0-0.5,0.225-0.5,0.5v0.138  c-0.632,0.228-1.601,0.541-2.957,0.889c-0.066-0.198-0.248-0.345-0.468-0.345h-1c-0.275,0-0.5,0.225-0.5,0.5v0.31  c-4.065,0.884-10.461,1.837-19.852,2.143l0.014,0.367c2.122-0.069,4.077-0.173,5.893-0.299v1.082  c-1.775,0.234-3.72,0.451-5.884,0.628l0.03,0.366c2.14-0.175,4.075-0.39,5.854-0.624v2.108l-5.417-1.129  c-0.269-0.056-0.489,0.123-0.489,0.398v2.155c0,0.275,0.223,0.534,0.494,0.576l19.357,2.964v9.399  c-0.098,0.027-0.189,0.064-0.305,0.064c-0.607,0-0.798-0.393-0.804-0.404c-0.019-0.045-0.483-1.1-1.821-1.1  c-1.123,0.004-1.769,1.031-1.795,1.076l-0.023,0.039c-0.011,0.021-0.238,0.445-0.826,0.445c-0.608,0-0.792-0.385-0.803-0.408  l-0.024-0.047c-0.024-0.043-0.61-1.045-1.804-1.049c-1.07,0-1.572,0.674-1.737,0.959l-0.045,0.076l-0.02,0.043  c-0.008,0.016-0.205,0.414-0.813,0.414c-0.606,0-0.8-0.395-0.804-0.404c-0.021-0.043-0.481-1.1-1.822-1.1  c-1.128,0.008-1.769,1.033-1.795,1.076l-0.023,0.043c-0.009,0.018-0.243,0.441-0.827,0.441c-0.01,0-0.443-0.005-0.443-0.005  c-0.324,0-0.586,0.262-0.586,0.586s0.262,0.586,0.586,0.586c0,0,0.425,0.015,0.443,0.015H4.75c1.149,0,1.674-0.82,1.784-1.023  c0.053-0.074,0.394-0.535,0.867-0.537c0.579,0,0.783,0.377,0.798,0.412c0.051,0.113,0.523,1.094,1.819,1.094  c1.21,0,1.701-0.848,1.8-1.049l0.027-0.045c0.068-0.121,0.284-0.402,0.794-0.402c0.506,0.004,0.79,0.398,0.837,0.469  c0.104,0.209,0.587,1.035,1.789,1.035c1.152,0,1.678-0.826,1.787-1.025c0.049-0.07,0.384-0.529,0.867-0.533  c0.595,0,0.791,0.396,0.795,0.404c0.02,0.045,0.484,1.1,1.819,1.1c0.259,0,0.508-0.041,0.735-0.121l0.013-0.006  c0.02,0.002,0.037,0.012,0.057,0.012h1c0.275,0,0.5-0.225,0.5-0.5v-8.712c0.94-0.069,2.021-0.097,2.925-0.105v8.818  c0,0.275,0.225,0.5,0.5,0.5h1c0.275,0,0.5-0.225,0.5-0.5v-8.97l2.233,0.342c0,0.006-0.004,0.012-0.004,0.019v8.244  c0,0.275,0.225,0.5,0.499,0.5s0.499-0.225,0.499-0.5v-8.11l3.004,0.46v7.249c0,0.275,0.225,0.5,0.5,0.5s0.5-0.225,0.5-0.5v-7.096  l3.533,0.541c0.271,0.041,0.489-0.149,0.483-0.425L39.011,23.216z M36.556,22.207l-2.135-0.445c-2.059-2.579-3.537-4.685-4.529-6.21  c-1.098-1.689-1.767-2.91-2.127-3.614v-1.929C28.86,12.021,31.453,16.25,36.556,22.207z M12.874,12.578  c-0.846,0.167-1.756,0.336-2.771,0.502v-0.874c0.975-0.091,1.899-0.188,2.771-0.29V12.578z M13.092,11.891  c0.988-0.117,1.912-0.24,2.769-0.366v0.399c-0.789,0.192-1.711,0.398-2.769,0.61V11.891z M12.874,12.948v4.324l-2.771-0.578v-3.244  C11.104,13.287,12.016,13.118,12.874,12.948z M13.092,12.906c1.026-0.206,1.947-0.411,2.769-0.61v5.599l-2.769-0.577V12.906z   M16.082,12.243c1.119-0.276,2.032-0.534,2.77-0.76v7.035l-2.77-0.577V12.243z M16.221,11.838c-0.043,0.011-0.096,0.022-0.14,0.033  v-0.379c1.014-0.151,1.938-0.306,2.77-0.458v0.07C18.151,11.322,17.288,11.571,16.221,11.838z M19.07,10.993  c0.104-0.02,0.21-0.039,0.312-0.059c-0.103,0.034-0.198,0.066-0.312,0.102V10.993z M22.839,19.349v-9.184  c0.786-0.201,1.451-0.391,1.991-0.561v10.159L22.839,19.349z M25.764,19.958L25.05,19.81V9.534c0.27-0.087,0.508-0.167,0.714-0.241  V19.958z M7.114,12.451c0.966-0.068,1.889-0.144,2.77-0.224v0.888c-0.86,0.139-1.791,0.274-2.77,0.405V12.451z M7.114,13.889  c0.972-0.13,1.905-0.264,2.77-0.403v3.163l-2.77-0.577V13.889z M19.07,18.563v-7.147c0.873-0.273,1.459-0.489,1.77-0.611v8.127  L19.07,18.563z M27.764,12.716c0.885,1.623,2.742,4.686,6.097,8.93l-6.097-1.271V12.716z"/></svg>