<?xml version="1.0" encoding="utf-8"?>
<!-- Generated by IcoMoon.io -->
<!DOCTYPE svg PUBLIC "-//W3C//DTD SVG 1.1//EN" "http://www.w3.org/Graphics/SVG/1.1/DTD/svg11.dtd">
<svg version="1.1" xmlns="http://www.w3.org/2000/svg" xmlns:xlink="http://www.w3.org/1999/xlink" width="16" height="16" viewBox="0 0 16 16">
<path d="M8 0c-4.418 0-8 3.582-8 8 0 3.389 2.109 6.284 5.085 7.45-0.070-0.633-0.133-1.604 0.028-2.295 0.145-0.624 0.938-3.977 0.938-3.977s-0.239-0.479-0.239-1.188c0-1.112 0.645-1.943 1.448-1.943 0.683 0 1.012 0.512 1.012 1.127 0 0.686-0.437 1.713-0.663 2.663-0.188 0.796 0.399 1.446 1.185 1.446 1.422 0 2.515-1.499 2.515-3.664 0-1.915-1.376-3.255-3.342-3.255-2.276 0-3.612 1.707-3.612 3.472 0 0.688 0.265 1.425 0.595 1.826 0.065 0.079 0.075 0.149 0.055 0.229-0.061 0.253-0.196 0.796-0.222 0.907-0.035 0.146-0.116 0.177-0.268 0.107-0.999-0.465-1.624-1.926-1.624-3.099 0-2.524 1.834-4.841 5.286-4.841 2.775 0 4.932 1.978 4.932 4.62 0 2.757-1.738 4.976-4.151 4.976-0.811 0-1.573-0.421-1.834-0.919 0 0-0.401 1.528-0.498 1.902-0.181 0.695-0.668 1.566-0.994 2.097 0.749 0.232 1.544 0.357 2.369 0.357 4.418-0 8-3.582 8-8s-3.582-8-8-8z"></path>
</svg>
