<?xml version="1.0" encoding="utf-8"?>
<!-- Generated by IcoMoon.io -->
<!DOCTYPE svg PUBLIC "-//W3C//DTD SVG 1.1//EN" "http://www.w3.org/Graphics/SVG/1.1/DTD/svg11.dtd">
<svg version="1.1" xmlns="http://www.w3.org/2000/svg" xmlns:xlink="http://www.w3.org/1999/xlink" width="16" height="16" viewBox="0 0 16 16">
<path d="M4.581 0l-1.081 2.144-1.081-2.144h-1.379l1.949 3.396 0.011-0.007v2.611h1v-2.611l0.011 0.007 1.949-3.396z"></path>
<path d="M7.5 2c0.271 0 0.5 0.229 0.5 0.5v2c0 0.271-0.229 0.5-0.5 0.5s-0.5-0.229-0.5-0.5v-2c0-0.271 0.229-0.5 0.5-0.5zM7.5 1c-0.825 0-1.5 0.675-1.5 1.5v2c0 0.825 0.675 1.5 1.5 1.5s1.5-0.675 1.5-1.5v-2c0-0.825-0.675-1.5-1.5-1.5v0z"></path>
<path d="M12 1v3.937c-0.436 0.364-1 0.583-1-0.713v-3.224h-1v3.427h0.002c0.015 0.827 0.19 2.315 1.998 1.105v0.468h1v-5h-1z"></path>
<path d="M13.5 11c-0.276 0-0.5 0.224-0.5 0.5v0.5h1v-0.5c0-0.276-0.224-0.5-0.5-0.5z"></path>
<path d="M9 11.5v2.625c0.339 0.339 1 0.375 1-0.125s0-1.844 0-2.344-0.5-0.656-1-0.156z"></path>
<path d="M15.918 9.087c-0.044-0.576-0.251-1.046-0.622-1.41s-0.845-0.562-1.423-0.595c-1.090-0.054-3.585-0.082-5.777-0.082s-4.864 0.027-5.954 0.082c-0.578 0.033-1.052 0.231-1.423 0.595s-0.578 0.834-0.622 1.41c-0.065 1.174-0.098 1.599-0.098 2.186s0.033 1.467 0.098 2.641c0.044 0.576 0.251 1.046 0.622 1.41s0.845 0.562 1.423 0.595c1.090 0.054 3.763 0.081 5.954 0.081s4.686-0.027 5.777-0.081c0.578-0.033 1.052-0.231 1.423-0.595s0.578-0.834 0.622-1.41c0.055-0.978 0.082-1.858 0.082-2.641s-0.027-1.208-0.082-2.186zM3 15h-1v-5h-1v-1h3v1h-1v5zM7 15h-1v-0.468c-1.901 1.067-1.983 0.034-1.998-0.792h-0.002v-2.739h1v2.755c0 0.604 0.564 0.546 1 0.182v-2.937h1v4zM11 13.986c0 1.045-1.070 1.35-2 0.537v0.477h-1v-6h1v1.625c1-1 2-0.625 2 0.375s0 1.893 0 2.986zM15 12v0.5h-2v1c0 0.276 0.224 0.5 0.5 0.5s0.5-0.224 0.5-0.5v-0.5h1v0.5c0 0.827-0.673 1.5-1.5 1.5s-1.5-0.673-1.5-1.5v-2c0-0.827 0.673-1.5 1.5-1.5s1.5 0.673 1.5 1.5v0.5z"></path>
</svg>
